#!OML:ASF H:\Terrain\Patient Classification 1\Walking\steve\steve.ASF
:FULLY-SPECIFIED
:DEGREES
108
root 9.54739 16.1725 -5.69692 5.82688 -5.40095 -1.97163
lowerback 1.98897 2.41958 3.39342
upperback -2.48613 3.42727 2.14248
thorax -3.61052 1.64588 0.137369
lowerneck -10.8007 -1.19231 -2.13287
upperneck 13.9366 -1.36213 0.696973
head 6.01858 -0.71905 0.457128
rclavicle -2.58793e-014 -7.95139e-015
rhumerus -42.914 -10.9759 -77.5548
rradius 39.0753
rwrist -3.96935
rhand -22.0925 -41.5286
rfingers 7.12502
rthumb 4.31945 -71.4646
lclavicle -2.58793e-014 -7.95139e-015
lhumerus -33.5978 -11.351 93.8895
lradius 46.0448
lwrist 24.812
lhand -29.2182 -20.2321
lfingers 7.12502
lthumb -2.56247 9.73223
rfemur -21.4267 2.6626 28.4416
rtibia 38.7336
rfoot -18.3242 12.329
rtoes 4.50907
lfemur -26.83 8.2371 -19.2916
ltibia 65.3792
lfoot -9.93426 2.75684
ltoes -10.6206
109
root 9.54064 16.1871 -5.46632 6.0755 -5.51395 -2.2729
lowerback 2.07622 2.4425 3.49238
upperback -2.61646 3.47596 2.26315
thorax -3.79654 1.66542 0.197018
lowerneck -11.1326 -1.30282 -2.03291
upperneck 14.2786 -1.46177 0.311163
head 6.18189 -0.793088 0.307418
rclavicle 2.45499e-014 2.54444e-014
rhumerus -42.3285 -8.3925 -79.5531
rradius 42.0953
rwrist -5.66803
rhand -22.9546 -41.5018
rfingers 7.12502
rthumb 3.48696 -71.453
lclavicle 2.45499e-014 2.54444e-014
lhumerus -34.5938 -10.3268 93.8351
lradius 44.1619
lwrist 24.437
lhand -28.9513 -19.6766
lfingers 7.12502
lthumb -2.30466 10.2906
rfemur -20.5241 2.20174 28.815
rtibia 38.423
rfoot -18.6149 12.7858
rtoes 5.1386
lfemur -28.6062 8.23536 -19.1164
ltibia 64.2297
lfoot -11.3606 3.08135
ltoes -12.0431
110
root 9.54206 16.1901 -5.22576 6.28798 -5.60458 -2.48744
lowerback 2.02244 2.48783 3.80208
upperback -2.6464 3.54248 2.15108
thorax -3.77092 1.68803 -0.0910937
lowerneck -11.4402 -1.4102 -1.7721
upperneck 14.4972 -1.62741 0.183242
head 6.30272 -0.869784 0.20698
rclavicle 1.75924e-014 -5.56597e-015
rhumerus -41.7179 -6.47414 -81.3366
rradius 44.93
rwrist -7.05364
rhand -23.4558 -41.2619
rfingers 7.12502
rthumb 3.00296 -71.2205
lclavicle 1.75924e-014 -5.56597e-015
lhumerus -35.2703 -9.75069 93.5788
lradius 42.0266
lwrist 24.5451
lhand -28.9773 -19.6127
lfingers 7.12502
lthumb -2.32982 10.3543
rfemur -19.619 1.38276 29.06
rtibia 38.109
rfoot -18.8018 13.7208
rtoes 7.12188
lfemur -30.0925 8.19567 -19.1153
ltibia 62.7791
lfoot -12.759 3.41865
ltoes -10.7809
111
root 9.54556 16.1972 -4.96939 6.32121 -5.91523 -2.46828
lowerback 1.87259 2.65978 4.00751
upperback -2.59305 3.75893 1.87407
thorax -3.59334 1.78955 -0.490137
lowerneck -11.2963 -1.43724 -1.49874
upperneck 14.3945 -1.73795 0.318647
head 6.24477 -0.89734 0.197013
rclavicle -3.3284e-014 7.15625e-015
rhumerus -41.1521 -5.18621 -82.8282
rradius 47.6662
rwrist -7.63321
rhand -22.4471 -40.4173
rfingers 7.12502
rthumb 3.97702 -70.36
lclavicle -3.3284e-014 7.15625e-015
lhumerus -35.8818 -9.47801 93.2608
lradius 39.8555
lwrist 24.5291
lhand -29.1236 -18.8854
lfingers 7.12502
lthumb -2.47111 11.08
rfemur -18.4619 0.514488 28.9894
rtibia 37.5995
rfoot -19.076 14.5181
rtoes 6.38451
lfemur -31.1236 8.20768 -19.3473
ltibia 60.9881
lfoot -13.8321 3.7005
ltoes -10.7452
112
root 9.54878 16.236 -4.70881 6.34104 -6.28393 -2.39961
lowerback 1.74321 2.8513 4.0733
upperback -2.55798 4.00301 1.73262
thorax -3.46063 1.91024 -0.673697
lowerneck -10.9082 -1.46731 -1.51513
upperneck 14.0108 -1.78366 0.33403
head 6.05723 -0.919168 0.204883
rclavicle 8.93289e-015 -7.15625e-015
rhumerus -40.6237 -3.64816 -83.9729
rradius 50.5336
rwrist -7.78279
rhand -20.7943 -40.2289
rfingers 7.12502
rthumb 5.57295 -70.1356
lclavicle 8.93289e-015 -7.15625e-015
lhumerus -36.7063 -8.72874 93.0082
lradius 37.9486
lwrist 23.7398
lhand -29.2313 -17.8318
lfingers 7.12502
lthumb -2.57506 12.1324
rfemur -17.1351 -0.413093 28.788
rtibia 36.7979
rfoot -19.0759 15.3173
rtoes 4.79951
lfemur -32.1251 7.88365 -19.4292
ltibia 58.9535
lfoot -14.8029 3.66805
ltoes -6.41359
113
root 9.55315 16.279 -4.45409 6.48457 -6.58376 -2.75886
lowerback 1.65271 2.97744 4.46191
upperback -2.58013 4.18195 1.81374
thorax -3.4057 1.99085 -0.80729
lowerneck -10.5931 -1.43906 -1.7968
upperneck 13.6909 -1.73644 0.55782
head 5.90649 -0.893722 0.328938
rclavicle 2.17421e-014 1.98785e-014
rhumerus -40.1239 -1.72015 -84.881
rradius 53.4175
rwrist -7.90639
rhand -20.1755 -40.866
rfingers 7.12502
rthumb 6.17042 -70.7562
lclavicle 2.17421e-014 1.98785e-014
lhumerus -37.5508 -7.72109 92.7273
lradius 36.0204
lwrist 23.342
lhand -28.9889 -17.3147
lfingers 7.12502
lthumb -2.34097 12.6522
rfemur -15.7138 -1.45369 28.9863
rtibia 35.6951
rfoot -18.2619 16.4008
rtoes 6.21147
lfemur -33.2427 7.4966 -18.9492
ltibia 56.762
lfoot -16.122 3.71968
ltoes -4.35254
114
root 9.55634 16.3078 -4.20384 6.73983 -6.97774 -3.10125
lowerback 1.55521 3.07035 4.74278
upperback -2.68046 4.3163 1.91842
thorax -3.4379 2.04967 -0.857033
lowerneck -10.2214 -1.33023 -2.17044
upperneck 13.4306 -1.59081 0.936156
head 5.76547 -0.813939 0.524124
rclavicle 5.40446e-015 7.15625e-015
rhumerus -39.6303 0.272029 -85.7577
rradius 55.9169
rwrist -8.41877
rhand -19.9839 -43.4071
rfingers 7.12502
rthumb 6.35537 -73.2917
lclavicle 5.40446e-015 7.15625e-015
lhumerus -38.4191 -6.87799 92.4799
lradius 34.0575
lwrist 23.7016
lhand -29.0516 -17.091
lfingers 7.12502
lthumb -2.40154 12.8752
rfemur -14.3272 -2.10221 29.1352
rtibia 34.4558
rfoot -17.2998 17.3009
rtoes 8.02544
lfemur -34.4607 7.49937 -18.6152
ltibia 54.3095
lfoot -17.1012 4.48051
ltoes -9.0488
115
root 9.55769 16.3462 -3.9499 6.97944 -7.34528 -3.08983
lowerback 1.47184 3.12233 4.65981
upperback -2.77882 4.38156 1.90175
thorax -3.49449 2.08186 -0.828948
lowerneck -10.0833 -1.33119 -2.15733
upperneck 13.2672 -1.56232 0.704223
head 5.68839 -0.816563 0.452408
rclavicle 3.72721e-016 1.59028e-014
rhumerus -39.0841 2.12595 -86.7433
rradius 58.2007
rwrist -9.39085
rhand -21.3255 -46.6194
rfingers 7.12502
rthumb 5.06005 -76.539
lclavicle 3.72721e-016 1.59028e-014
lhumerus -39.3884 -5.94492 92.1242
lradius 32.389
lwrist 23.2971
lhand -29.8437 -16.048
lfingers 7.12502
lthumb -3.16651 13.9082
rfemur -13.0616 -2.48504 28.8906
rtibia 33.3576
rfoot -16.5123 18.0936
rtoes 8.79777
lfemur -35.6374 7.48127 -18.6772
ltibia 51.5751
lfoot -17.2062 5.76508
ltoes -14.8113
116
root 9.55977 16.3795 -3.68966 7.19221 -7.58718 -3.17242
lowerback 1.25767 3.20549 4.74529
upperback -2.79706 4.48009 1.85764
thorax -3.37829 2.13049 -0.91175
lowerneck -10.2026 -1.39847 -1.83933
upperneck 13.2631 -1.62638 0.190972
head 5.70153 -0.869471 0.233275
rclavicle -6.71892e-014 -2.38542e-015
rhumerus -38.442 3.58068 -87.5675
rradius 60.5168
rwrist -9.84982
rhand -23.8747 -45.9162
rfingers 7.12502
rthumb 2.59841 -75.8801
lclavicle -6.71892e-014 -2.38542e-015
lhumerus -40.1429 -4.82396 91.4542
lradius 30.833
lwrist 21.9891
lhand -29.927 -13.6624
lfingers 7.12502
lthumb -3.24697 16.2926
rfemur -11.8721 -3.01701 28.6956
rtibia 32.4703
rfoot -15.9823 18.7824
rtoes 7.96501
lfemur -36.3717 7.25554 -18.6069
ltibia 48.539
lfoot -17.4996 6.57058
ltoes -17.3314
117
root 9.56896 16.3659 -3.43456 7.41416 -7.95508 -3.58728
lowerback 1.03502 3.39184 5.34201
upperback -2.80084 4.7283 1.83123
thorax -3.19766 2.24186 -1.25933
lowerneck -10.0412 -1.40692 -1.81197
upperneck 13.0943 -1.64891 0.214096
head 5.62126 -0.876942 0.235998
rclavicle 1.09456e-014 1.98785e-014
rhumerus -38.0784 4.95382 -88.1043
rradius 63.2188
rwrist -9.70227
rhand -23.9669 -43.6591
rfingers 7.12502
rthumb 2.50935 -73.6241
lclavicle 1.09456e-014 1.98785e-014
lhumerus -40.8227 -3.76379 90.6169
lradius 29.2271
lwrist 21.1817
lhand -28.9684 -11.9356
lfingers 7.12502
lthumb -2.32118 18.0316
rfemur -10.7083 -3.50712 28.7836
rtibia 31.6944
rfoot -15.3491 19.6105
rtoes 8.82051
lfemur -36.638 7.19674 -18.2711
ltibia 45.28
lfoot -18.2156 6.65007
ltoes -16.6267
118
root 9.58362 16.3526 -3.17853 7.58258 -8.43445 -3.9549
lowerback 1.03067 3.50669 5.88183
upperback -2.86859 4.89797 1.81721
thorax -3.213 2.30993 -1.57603
lowerneck -9.88795 -1.33263 -1.91877
upperneck 13.0018 -1.56623 0.43234
head 5.56793 -0.826039 0.32962
rclavicle 2.33199e-014 2.14687e-014
rhumerus -37.863 6.6374 -88.5621
rradius 65.8685
rwrist -9.46623
rhand -22.9002 -39.4646
rfingers 7.12502
rthumb 3.53949 -69.4149
lclavicle 2.33199e-014 2.14687e-014
lhumerus -41.8039 -2.49492 89.7457
lradius 27.6802
lwrist 21.3431
lhand -28.6574 -11.8414
lfingers 7.12502
lthumb -2.02081 18.1288
rfemur -9.53903 -3.91912 28.7425
rtibia 31.0462
rfoot -14.258 20.8168
rtoes 11.8116
lfemur -36.7454 7.0905 -17.8939
ltibia 41.8151
lfoot -18.3426 7.13252
ltoes -17.2837
